<svg xmlns="http://www.w3.org/2000/svg" viewBox="0 0 32 32" width="32" height="32">
  <defs>
    <linearGradient id="brainGradient" x1="0%" y1="0%" x2="100%" y2="100%">
      <stop offset="0%" style="stop-color:#667eea;stop-opacity:1" />
      <stop offset="100%" style="stop-color:#764ba2;stop-opacity:1" />
    </linearGradient>
  </defs>
  <rect width="32" height="32" rx="6" fill="url(#brainGradient)"/>
  <path d="M8 12c0-2.2 1.8-4 4-4s4 1.8 4 4c0 1.1-.4 2.1-1.1 2.8.7.7 1.1 1.7 1.1 2.8 0 2.2-1.8 4-4 4s-4-1.8-4-4c0-1.1.4-2.1 1.1-2.8C8.4 14.1 8 13.1 8 12z" fill="white" opacity="0.9"/>
  <path d="M16 14c0-1.1.4-2.1 1.1-2.8C16.4 10.5 16 9.5 16 8.5c0-1.9 1.6-3.5 3.5-3.5S23 6.6 23 8.5c0 1-.4 2-1.1 2.7.7.7 1.1 1.7 1.1 2.8 0 1.9-1.6 3.5-3.5 3.5S16 15.9 16 14z" fill="white" opacity="0.7"/>
  <circle cx="12" cy="20" r="2" fill="white" opacity="0.8"/>
  <circle cx="20" cy="22" r="1.5" fill="white" opacity="0.6"/>
  <path d="M10 16c.5.5 1.2.8 2 .8s1.5-.3 2-.8" stroke="white" stroke-width="0.5" fill="none" opacity="0.7"/>
</svg>